<svg width="67" height="42" viewBox="0 0 67 42" fill="none" xmlns="http://www.w3.org/2000/svg">
<g opacity="0.4">
<path d="M8.58439 16.6087C8.58439 16.6087 5.20821 16.8756 4.75806 17.6346C4.30267 18.3936 4.2765 19.5609 4.2765 20.8433C4.2765 22.1309 4.22415 25.0831 4.22415 25.0831L5.03025 26.8157C5.03025 26.8157 5.18204 48.8995 5.18204 49.5852C5.18204 50.2657 5.18204 51.098 6.1661 51.6266C7.15017 52.1553 32.16 64.2362 32.9399 64.5608C34.1177 65.0476 34.6777 64.8644 34.6777 64.8644L62.467 18.3884C62.467 18.3884 62.3781 17.1164 61.2213 16.8128C60.5565 16.6453 8.58439 16.6087 8.58439 16.6087Z" fill="#F5B03E"/>
<path d="M34.3794 31.8878C33.9554 33.0551 34.1491 45.1255 34.2223 53.9036C34.2956 62.6764 33.9973 64.4927 34.2223 64.7963C34.4474 65.0999 35.0598 64.8068 36.7924 64.0373C40.0116 62.6136 55.4739 54.9609 56.6098 54.2805C57.7456 53.6 60.5198 52.192 60.9752 51.433C61.4306 50.674 61.6766 43.6128 61.8284 37.944C61.9802 32.2699 62.132 27.7317 62.132 27.7317L62.8125 25.6903C62.8125 25.6903 62.6659 20.1733 62.6398 19.5661C62.5927 18.5611 62.4827 18.0429 62.2262 18.1685C61.8598 18.3412 58.803 20.8485 50.7106 24.7848C45.628 27.2502 34.6725 31.0817 34.3794 31.8878Z" fill="#E07F14"/>
<path d="M34.4527 5.86772C32.1862 5.76303 25.9834 9.34858 20.0058 11.3115C14.0281 13.2744 5.00406 17.2211 4.92554 17.4514C4.85226 17.6765 8.5582 19.3358 10.9241 20.4716C13.735 21.8169 24.4655 26.8994 26.4284 27.7317C28.3965 28.564 33.0865 30.5112 33.8402 30.4536C34.8976 30.3803 44.8848 26.444 49.9516 24.0258C55.0185 21.6075 61.3521 17.8597 61.4359 16.9489C61.4725 16.5406 52.1187 13.0493 47.4548 10.9398C38.4517 6.86225 36.1119 5.94624 34.4527 5.86772Z" fill="#FDD717"/>
<path d="M4.25031 26.0515C4.32883 27.0356 4.86797 27.3863 6.23937 27.983C7.61078 28.5797 33.5366 42.0477 34.1334 42.0477C34.7301 42.0477 34.908 39.9121 34.2537 39.9697C33.8978 40.0011 25.3815 35.9549 17.4252 31.914C10.6729 28.4907 4.20844 25.0727 4.20844 25.0727L4.25031 26.0515Z" fill="#E37D14"/>
<path d="M62.8177 25.6432C62.8177 25.6432 35.1331 39.7237 34.8609 39.8598C34.5888 39.9959 34.1543 39.9487 34.1543 39.9487L34.1334 42.0477C34.1334 42.0477 34.3898 42.1053 34.6777 42.0163C34.8452 41.964 62.0169 27.8992 62.1373 27.8573C62.2577 27.8155 62.7811 27.5014 62.891 26.8366C62.9852 26.3027 62.8177 25.6432 62.8177 25.6432Z" fill="#BA5E0D"/>
<path d="M15.1064 50.9933L20.524 59.0542L22.8951 59.8655C22.8951 59.8655 23.0888 51.0718 23.1673 44.555C23.2773 35.0337 23.2354 26.3498 23.3715 25.8578C23.5966 25.0255 34.1333 21.6075 34.1333 21.6075C34.1333 21.6075 46.0363 25.3396 46.4132 26.1719C46.5807 26.5383 46.4498 32.7044 46.4132 39.8912C46.3661 48.9676 46.3818 59.4468 46.3818 59.4468C46.3818 59.4468 47.6119 59.4416 47.7584 58.9862C47.9102 58.5308 48.5174 55.0185 48.5174 55.0185L53.1341 24.2456L55.4791 21.2201L52.2233 15.0226L38.8652 8.44827L34.2747 9.47945L29.3073 8.72046L13.5518 20.0424L15.3891 23.7693L19.8958 26.0672L15.1064 50.9933Z" fill="#5F33B9"/>
<path d="M47.7794 25.8526C47.4915 26.4859 47.659 59.1223 47.659 59.1223C47.659 59.1223 49.0984 58.3266 50.9514 57.4368C52.7939 56.5522 54.1182 56.0026 54.2334 55.542C54.3485 55.0813 54.5527 22.8062 54.5527 22.8062L47.7794 25.8526Z" fill="#7E49EE"/>
<path d="M21.6441 25.1773C21.8169 25.3658 21.5342 59.2322 21.1835 59.3107C20.9061 59.3788 14.5987 56.5627 14.5987 56.2748C14.5987 55.9869 15.1064 23.6227 15.1064 23.6227C15.1064 23.6227 21.1312 24.6016 21.6441 25.1773ZM34.1438 7.45898C32.4008 7.45898 30.4745 7.95625 29.9144 9.41664C29.3544 10.877 29.2287 13.0493 29.2287 14.672C29.2287 16.2266 28.9775 20.2047 33.7669 20.1419C38.5564 20.0791 38.6977 18.3046 38.771 14.3893C38.8338 11.123 38.3994 9.53703 37.9649 8.85656C37.5776 8.24414 36.2899 7.45898 34.1438 7.45898Z" fill="#9C6CFF"/>
<path d="M31.3748 15.5408C32.4636 15.6037 32.9295 13.2115 33.767 11.903C34.6045 10.5996 35.4786 9.72546 35.1645 9.04499C34.908 8.47968 32.6311 8.29647 31.401 10.0081C30.5373 11.2173 30.3855 15.4833 31.3748 15.5408Z" fill="#DCC9FC"/>
<path d="M38.3837 8.59484C38.3837 8.59484 39.9278 10.1652 40.3309 13.243C40.7339 16.3208 40.268 18.7129 40.268 18.7129C40.268 18.7129 47.9416 18.4826 50.5902 18.9903C53.2022 19.498 54.113 20.6496 54.113 21.4871C54.113 22.3246 52.3961 22.9998 50.653 22.8742C48.91 22.7486 47.7323 22.6544 47.5124 23.0941C47.2926 23.5337 47.6066 24.2142 50.0302 24.3974C52.4537 24.5859 55.2541 24.2404 56.123 21.2254C56.9919 18.2104 57.0233 12.9865 56.7144 9.22297C56.4056 5.45945 55.7252 3.30812 54.0397 2.49156C52.2652 1.63836 47.8212 1.49703 43.6233 3.85773C39.4253 6.21843 38.3837 8.59484 38.3837 8.59484Z" fill="#9C6CFF"/>
<path d="M47.078 5.01454C46.5336 4.31313 44.7801 4.33407 43.8431 5.41758C42.8486 6.56915 42.6287 10.9503 43.9059 11.2016C45.3506 11.4842 45.0889 9.11829 46.1462 7.6579C47.1826 6.22891 47.6066 5.70024 47.078 5.01454Z" fill="#DCC9FC"/>
<path d="M29.5114 8.74665C29.5114 8.74665 23.6332 1.89485 16.9175 1.99954C12.8765 2.06235 11.8506 4.39165 11.6308 5.35477C11.4109 6.3179 9.73592 15.8968 11.971 21.0841C14.2061 26.2713 18.8437 24.9261 19.5713 24.7586C20.503 24.5388 22.4869 23.8583 22.2984 23.1412C22.11 22.4241 15.5199 25.0046 15.4571 22.0524C15.3943 19.1002 20.1209 18.7862 22.2984 18.7234C24.4759 18.6606 28.208 19.1578 28.208 19.1578C28.208 19.1578 27.5537 15.5827 27.9882 13.0336C28.4226 10.4845 29.5114 8.74665 29.5114 8.74665Z" fill="#9C6CFF"/>
<path d="M15.1169 4.48587C14.2794 5.35478 13.9339 10.3641 14.4626 12.8504C14.9912 15.3367 15.4571 16.3941 16.5459 16.1795C17.4566 15.9963 18.0063 11.1178 18.4407 9.40095C18.9066 7.56892 20.0581 5.62173 19.5923 4.76853C18.8804 3.45993 15.991 3.58032 15.1169 4.48587Z" fill="#DCC9FC"/>
</g>
</svg>
